<svg xmlns="http://www.w3.org/2000/svg" enable-background="new 0 0 24 24" viewBox="0 0 24 24"><path d="M2 15c-.567 0-1.109-.242-1.488-.664C.182 13.969 0 13.494 0 13c0-.276.224-.5.5-.5S1 12.724 1 13c0 .247.091.484.256.668C1.445 13.879 1.716 14 2 14c.551 0 1-.448 1-1s-.449-1-1-1c-.178 0-.352.047-.503.136-.302.177-.666.176-.973-.002C.201 11.949 0 11.604 0 11.235V9.5C0 9.224.224 9 .5 9h3C3.776 9 4 9.224 4 9.5S3.776 10 3.5 10H1v1.235C1.294 11.095 1.644 11 2 11c1.103 0 2 .897 2 2S3.103 15 2 15zM7.5 15c-1.654 0-3-1.346-3-3s1.346-3 3-3 3 1.346 3 3S9.154 15 7.5 15zM7.5 10c-1.103 0-2 .897-2 2s.897 2 2 2 2-.897 2-2S8.603 10 7.5 10zM14 15c-1.654 0-3-1.346-3-3s1.346-3 3-3 3 1.346 3 3S15.654 15 14 15zM14 10c-1.103 0-2 .897-2 2s.897 2 2 2 2-.897 2-2S15.103 10 14 10zM19.5 12c-.276 0-.5-.224-.5-.5s.224-.5.5-.5c.276 0 .5-.225.5-.5S19.776 10 19.5 10 19 10.225 19 10.5c0 .276-.224.5-.5.5S18 10.776 18 10.5C18 9.673 18.673 9 19.5 9S21 9.673 21 10.5 20.327 12 19.5 12z"/><path d="M18.5 13.5c-.276 0-.5-.224-.5-.5v-2.5c0-.276.224-.5.5-.5s.5.224.5.5V13C19 13.276 18.776 13.5 18.5 13.5zM23.5 12c-.128 0-.256-.049-.354-.146l-2-2c-.195-.195-.195-.512 0-.707s.512-.195.707 0l2 2c.195.195.195.512 0 .707C23.756 11.951 23.628 12 23.5 12z"/><path d="M21.5,12c-0.128,0-0.256-0.049-0.354-0.146c-0.195-0.195-0.195-0.512,0-0.707l2-2c0.195-0.195,0.512-0.195,0.707,0s0.195,0.512,0,0.707l-2,2C21.756,11.951,21.628,12,21.5,12z"/></svg>